<svg id="图层_1" data-name="图层 1" xmlns="http://www.w3.org/2000/svg" viewBox="0 0 444.99 113.39"><defs><style>.cls-1{fill:#fff;}</style></defs><path class="cls-1" d="M90.78,89.75a36.14,36.14,0,0,1-26,9.26c-17.74-.72-32.16-14-33-30.31-.94-18.32,14.9-33.44,34.56-33.44a36,36,0,0,1,24.39,9.29,12.71,12.71,0,0,0,8.59,3.22H109c7.5,0,11.87-7.8,7.52-13.43C105.36,19.85,87,10.41,66.22,10.46,31.66,10.54,3.75,37.26,4.91,69.1,6,99.51,33.12,123.84,66.38,123.84c20.71,0,39-9.43,50.17-23.9,4.33-5.62-.06-13.41-7.54-13.41H99.36A12.67,12.67,0,0,0,90.78,89.75Z" transform="translate(-4.88 -10.46)"/><path class="cls-1" d="M197,102.22H165.45a5.67,5.67,0,0,1-5.67-5.67V24.45a13.86,13.86,0,0,0-12.94-14,13.62,13.62,0,0,0-14.27,13.6v86.17a12.29,12.29,0,0,0,.09,1.49,11.2,11.2,0,0,0-.09,1.3,10.81,10.81,0,0,0,10.81,10.81h54a10.8,10.8,0,0,0,10.81-11A11.05,11.05,0,0,0,197,102.22Z" transform="translate(-4.88 -10.46)"/><path class="cls-1" d="M270.38,10.46a56.69,56.69,0,1,0,56.69,56.69A56.69,56.69,0,0,0,270.38,10.46Zm0,85a28.35,28.35,0,1,1,28.35-28.35A28.34,28.34,0,0,1,270.38,95.5Z" transform="translate(-4.88 -10.46)"/><path class="cls-1" d="M417.37,86.27a28.25,28.25,0,0,1-21.6,9.22,28.34,28.34,0,0,1,.71-56.68,28.17,28.17,0,0,1,15,4.28A23.69,23.69,0,0,0,424,46.86h5a11.35,11.35,0,0,0,8.15-19.24,56.68,56.68,0,1,0,12.75,58.65Z" transform="translate(-4.88 -10.46)"/><path class="cls-1" d="M392.4,56.69h44.08a8.5,8.5,0,0,1,8.5,8.5V75.81a0,0,0,0,1,0,0H392.4a5.67,5.67,0,0,1-5.67-5.67V62.36a5.67,5.67,0,0,1,5.67-5.67Z"/></svg>